HIERARCHY
ROOT Hips
{
    OFFSET 0.000000 0.000000 0.000000
    CHANNELS 6 Xposition Yposition Zposition Zrotation Yrotation Xrotation
    JOINT Chest
    {
        OFFSET 0.000000 1.634758 -0.000000
        CHANNELS 3 Zrotation Yrotation Xrotation
        JOINT Chest2
        {
            OFFSET 0.000000 2.197341 0.000000
            CHANNELS 3 Zrotation Yrotation Xrotation
            JOINT Neck
            {
                OFFSET 0.000000 0.961544 0.000000
                CHANNELS 3 Zrotation Yrotation Xrotation
                JOINT Head
                {
                    OFFSET 0.000000 0.632542 -0.032565
                    CHANNELS 3 Zrotation Yrotation Xrotation
                    End Site
                    {
                        OFFSET -0.000001 0.439502 2.922845
                    }
                }
            }
            JOINT LeftCollar
            {
                OFFSET 0.167536 0.778237 -0.168280
                CHANNELS 3 Zrotation Yrotation Xrotation
                JOINT LeftShoulder
                {
                    OFFSET 0.831514 -0.002900 0.006458
                    CHANNELS 3 Zrotation Yrotation Xrotation
                    JOINT LeftElbow
                    {
                        OFFSET 2.272872 -0.026639 0.059314
                        CHANNELS 3 Zrotation Yrotation Xrotation
                        JOINT LeftWrist
                        {
                            OFFSET 2.081982 -0.024402 0.054333
                            CHANNELS 3 Zrotation Yrotation Xrotation
                            JOINT LeftHandThumb1
                            {
                                OFFSET 0.218903 -0.128645 0.283837
                                CHANNELS 3 Zrotation Yrotation Xrotation
                                JOINT LeftHandThumb2
                                {
                                    OFFSET 0.137157 -0.025101 0.077902
                                    CHANNELS 3 Zrotation Yrotation Xrotation
                                    JOINT LeftHandThumb3
                                    {
                                        OFFSET 0.174382 -0.013597 -0.054271
                                        CHANNELS 3 Zrotation Yrotation Xrotation
                                        End Site
                                        {
                                            OFFSET 0.265225 -0.014064 -0.035976
                                        }
                                    }
                                }
                            }
                            JOINT LeftHandFore1
                            {
                                OFFSET 0.767340 -0.016076 0.196678
                                CHANNELS 3 Zrotation Yrotation Xrotation
                                JOINT LeftHandFore2
                                {
                                    OFFSET 0.209402 -0.053339 0.017355
                                    CHANNELS 3 Zrotation Yrotation Xrotation
                                    JOINT LeftHandFore3
                                    {
                                        OFFSET 0.112817 -0.062483 0.011445
                                        CHANNELS 3 Zrotation Yrotation Xrotation
                                        End Site
                                        {
                                            OFFSET 0.141706 -0.130704 0.014233
                                        }
                                    }
                                }
                            }
                            JOINT LeftHandMiddle1
                            {
                                OFFSET 0.709887 -0.008320 0.018526
                                CHANNELS 3 Zrotation Yrotation Xrotation
                                JOINT LeftHandMiddle2
                                {
                                    OFFSET 0.234000 -0.070929 0.016640
                                    CHANNELS 3 Zrotation Yrotation Xrotation
                                    JOINT LeftHandMiddle3
                                    {
                                        OFFSET 0.117695 -0.086117 0.010730
                                        CHANNELS 3 Zrotation Yrotation Xrotation
                                        End Site
                                        {
                                            OFFSET 0.132879 -0.194101 0.017265
                                        }
                                    }
                                }
                            }
                            JOINT LeftHandRing1
                            {
                                OFFSET 0.743817 -0.005823 -0.153668
                                CHANNELS 3 Zrotation Yrotation Xrotation
                                JOINT LeftHandRing2
                                {
                                    OFFSET 0.336037 -0.108665 0.002139
                                    CHANNELS 3 Zrotation Yrotation Xrotation
                                    JOINT LeftHandRing3
                                    {
                                        OFFSET 0.089045 -0.103016 0.008018
                                        CHANNELS 3 Zrotation Yrotation Xrotation
                                        End Site
                                        {
                                            OFFSET 0.049840 -0.109042 0.006750
                                        }
                                    }
                                }
                            }
                            JOINT LeftHandLittle1
                            {
                                OFFSET 0.689408 -0.053302 -0.308304
                                CHANNELS 3 Zrotation Yrotation Xrotation
                                JOINT LeftHandLittle2
                                {
                                    OFFSET 0.193649 -0.023348 -0.003025
                                    CHANNELS 3 Zrotation Yrotation Xrotation
                                    JOINT LeftHandLittle3
                                    {
                                        OFFSET 0.097052 -0.070999 0.006017
                                        CHANNELS 3 Zrotation Yrotation Xrotation
                                        End Site
                                        {
                                            OFFSET 0.065733 -0.174840 0.037399
                                        }
                                    }
                                }
                            }
                        }
                    }
                }
            }
            JOINT RightCollar
            {
                OFFSET -0.167536 0.778237 -0.168280
                CHANNELS 3 Zrotation Yrotation Xrotation
                JOINT RightShoulder
                {
                    OFFSET -0.831514 -0.002900 0.006457
                    CHANNELS 3 Zrotation Yrotation Xrotation
                    JOINT RightElbow
                    {
                        OFFSET -2.272872 -0.026639 0.059313
                        CHANNELS 3 Zrotation Yrotation Xrotation
                        JOINT RightWrist
                        {
                            OFFSET -2.081982 -0.024402 0.054331
                            CHANNELS 3 Zrotation Yrotation Xrotation
                            JOINT RightHandThumb1
                            {
                                OFFSET -0.218911 -0.128571 0.283837
                                CHANNELS 3 Zrotation Yrotation Xrotation
                                JOINT RightHandThumb2
                                {
                                    OFFSET -0.137157 -0.025101 0.077902
                                    CHANNELS 3 Zrotation Yrotation Xrotation
                                    JOINT RightHandThumb3
                                    {
                                        OFFSET -0.097615 -0.150407 0.037262
                                        CHANNELS 3 Zrotation Yrotation Xrotation
                                        End Site
                                        {
                                            OFFSET -0.164067 -0.194342 0.084556
                                        }
                                    }
                                }
                            }
                            JOINT RightHandFore1
                            {
                                OFFSET -0.767344 -0.015991 0.196679
                                CHANNELS 3 Zrotation Yrotation Xrotation
                                JOINT RightHandFore2
                                {
                                    OFFSET -0.209417 -0.053291 0.017358
                                    CHANNELS 3 Zrotation Yrotation Xrotation
                                    JOINT RightHandFore3
                                    {
                                        OFFSET -0.113045 -0.062512 0.008663
                                        CHANNELS 3 Zrotation Yrotation Xrotation
                                        End Site
                                        {
                                            OFFSET -0.141802 -0.130713 0.013155
                                        }
                                    }
                                }
                            }
                            JOINT RightHandMiddle1
                            {
                                OFFSET -0.709887 -0.008302 0.018525
                                CHANNELS 3 Zrotation Yrotation Xrotation
                                JOINT RightHandMiddle2
                                {
                                    OFFSET -0.233989 -0.070949 0.016648
                                    CHANNELS 3 Zrotation Yrotation Xrotation
                                    JOINT RightHandMiddle3
                                    {
                                        OFFSET -0.117942 -0.086166 0.007028
                                        CHANNELS 3 Zrotation Yrotation Xrotation
                                        End Site
                                        {
                                            OFFSET -0.133736 -0.194223 0.004738
                                        }
                                    }
                                }
                            }
                            JOINT RightHandRing1
                            {
                                OFFSET -0.743819 -0.005785 -0.153669
                                CHANNELS 3 Zrotation Yrotation Xrotation
                                JOINT RightHandRing2
                                {
                                    OFFSET -0.336043 -0.108645 0.002198
                                    CHANNELS 3 Zrotation Yrotation Xrotation
                                    JOINT RightHandRing3
                                    {
                                        OFFSET -0.089710 -0.101397 -0.016605
                                        CHANNELS 3 Zrotation Yrotation Xrotation
                                        End Site
                                        {
                                            OFFSET -0.050519 -0.107388 -0.018328
                                        }
                                    }
                                }
                            }
                            JOINT RightHandLittle1
                            {
                                OFFSET -0.689403 -0.053298 -0.308303
                                CHANNELS 3 Zrotation Yrotation Xrotation
                                JOINT RightHandLittle2
                                {
                                    OFFSET -0.193652 -0.023349 -0.003015
                                    CHANNELS 3 Zrotation Yrotation Xrotation
                                    JOINT RightHandLittle3
                                    {
                                        OFFSET -0.096823 -0.070506 -0.012238
                                        CHANNELS 3 Zrotation Yrotation Xrotation
                                        End Site
                                        {
                                            OFFSET -0.064635 -0.172529 -0.048420
                                        }
                                    }
                                }
                            }
                        }
                    }
                }
            }
        }
    }
    JOINT LeftHip
    {
        OFFSET 0.685143 0.673822 -0.044491
        CHANNELS 3 Zrotation Yrotation Xrotation
        JOINT LeftKnee
        {
            OFFSET 0.085364 -3.750208 0.017676
            CHANNELS 3 Zrotation Yrotation Xrotation
            JOINT LeftAnkle
            {
                OFFSET 0.094583 -4.155206 0.019585
                CHANNELS 3 Zrotation Yrotation Xrotation
                JOINT LeftToe
                {
                    OFFSET -0.000000 -0.395925 0.621478
                    CHANNELS 3 Zrotation Yrotation Xrotation
                    End Site
                    {
                        OFFSET -0.000000 -0.077878 0.321152
                    }
                }
            }
        }
    }
    JOINT RightHip
    {
        OFFSET -0.685143 0.673822 -0.044492
        CHANNELS 3 Zrotation Yrotation Xrotation
        JOINT RightKnee
        {
            OFFSET -0.085364 -3.750208 0.017677
            CHANNELS 3 Zrotation Yrotation Xrotation
            JOINT RightAnkle
            {
                OFFSET -0.094583 -4.155206 0.019585
                CHANNELS 3 Zrotation Yrotation Xrotation
                JOINT RightToe
                {
                    OFFSET -0.000000 -0.395925 0.621478
                    CHANNELS 3 Zrotation Yrotation Xrotation
                    End Site
                    {
                        OFFSET -0.000000 -0.077878 0.321152
                    }
                }
            }
        }
    }
}
MOTION
Frames: 5
Frame Time: 0.033333
-0.003404 8.272867 -0.472338 180.000000 -0.000011 180.000000 2.991716 -5.945150 -1.676532 0.181550 0.904009 -2.537370 2.977542 -10.053081 9.259971 0.957668 -17.985655 19.562748 -13.462113 -6.112309 0.190919 -57.547897 -0.150067 18.184532 0.232927 -42.293022 -0.609528 0.801510 -21.383348 -14.335809 -0.000012 -0.000000 -0.000004 -10.138651 5.595753 -20.309208 14.235898 -11.623860 -2.640412 -46.893581 5.786688 -21.045330 -62.877651 -1.954981 1.969333 -1.509405 -0.079229 0.045223 -57.852024 1.170300 -26.835867 -61.327068 -0.665680 3.844254 2.254731 0.093466 -0.105151 -54.486557 -4.532954 -14.958830 -55.651066 -2.011010 1.409246 -2.108050 -0.158304 0.072204 -67.066101 -10.583418 1.881949 -80.840897 -9.427992 14.526803 21.313948 3.740858 1.299522 9.948044 4.196987 -0.173000 39.056820 -9.304942 20.692221 -1.343424 70.635315 -1.903379 -13.141691 1.070566 -19.528618 -0.000005 0.000002 -0.000008 -6.270272 5.954432 20.915007 -4.128154 12.544909 -13.225156 46.902641 -5.836323 -21.030678 62.075832 -4.645755 7.231236 1.500045 -0.020395 0.189357 57.865349 -1.225615 -26.832897 61.102558 -3.722173 3.598049 -2.249824 0.042171 -0.201602 54.490841 4.492974 -14.972022 55.036320 -9.648064 -2.020526 2.068806 -0.437572 0.039971 67.064949 10.573686 1.848191 80.601585 -11.377177 -18.423151 -21.085245 4.949967 -0.998827 -0.055001 12.463575 -5.197744 0.050304 0.358694 15.964170 -2.296619 -8.363326 -16.032955 -0.035046 -0.182284 -2.748199 0.732684 -3.085328 -6.455584 -0.067986 -0.415608 18.582762 7.319577 -0.622236 -18.085512 0.039583 0.181974 -1.358697
-0.003404 8.272867 -0.472338 180.000000 -0.000011 180.000000 3.433686 -5.305234 -1.598012 0.086800 0.813509 -2.747663 2.988266 -9.472483 7.325800 0.894123 -16.862206 15.984962 -13.862584 -5.995249 0.176274 -61.337273 -1.094048 13.561972 0.178805 -38.089687 -0.525292 20.222582 -15.513957 -34.062073 0.000004 -0.000002 0.000014 -9.398656 5.520465 -20.331797 13.187731 -11.062184 -2.210157 -47.092499 6.089545 -20.268393 -67.515175 -1.996111 2.180519 -2.629179 -0.137231 0.080105 -57.315895 1.133923 -25.380598 -67.004936 -0.513483 4.191245 0.995210 0.038921 -0.045025 -54.389130 -4.312722 -15.445759 -55.491989 -2.007687 1.402761 -3.302825 -0.246801 0.115701 -66.782051 -10.262712 1.137012 -80.062386 -9.450011 14.348151 19.469065 3.440020 1.133223 11.113429 4.137273 -0.173643 45.667767 -8.062778 17.898907 -0.770856 62.398834 -1.280135 -26.620745 -1.762298 -27.265596 -0.000010 -0.000010 -0.000006 -6.015613 6.509366 20.512522 -3.844829 11.594868 -12.500129 47.100761 -6.137320 -20.252899 66.639687 -5.253394 7.502503 2.612800 -0.038725 0.329468 57.327854 -1.186359 -25.377718 66.760796 -4.216062 3.691109 -0.992696 0.017360 -0.090997 54.393749 4.271648 -15.458419 54.876869 -9.625412 -2.001762 3.241290 -0.686139 0.055624 66.780998 10.251262 1.104094 79.819939 -11.409306 -18.199844 -19.257940 4.541053 -0.841068 0.005834 13.233160 -5.189395 0.050104 0.357992 15.932095 -5.971790 -7.697494 -15.055834 -0.078029 -0.434052 -3.439761 0.653846 -4.568746 -6.477804 -0.067905 -0.415365 18.571522 8.312510 0.775939 -17.660074 0.053729 0.252757 -1.629875
-0.003404 8.272867 -0.472338 180.000000 -0.000011 180.000000 3.712723 -4.560922 -1.484821 0.014241 0.704226 -3.064823 3.107777 -9.071780 5.027154 0.848482 -16.046967 11.629657 -13.530076 -6.427106 0.145077 -61.735847 -1.652194 12.088969 0.220704 -41.418236 -0.591112 29.377016 -6.690248 -43.429722 0.000002 -0.000003 0.000006 -9.207088 5.447162 -20.072641 11.410782 -10.035357 -1.556698 -47.863659 6.159008 -19.326138 -71.667358 -2.018366 2.371839 -4.499519 -0.232503 0.140879 -57.230488 1.003006 -23.784912 -71.666862 -0.363320 4.463819 -1.090274 -0.048633 0.057368 -54.666779 -4.232599 -15.420928 -55.900879 -2.016218 1.419469 -5.237241 -0.388096 0.190009 -66.764938 -9.952288 0.780679 -79.609840 -9.461732 14.244182 16.604912 2.962333 0.894348 11.833897 4.239142 -0.161819 49.522884 -7.106848 19.243444 -0.664808 59.991253 -1.158975 -37.953556 -2.787514 -32.883060 0.000000 0.000004 -0.000020 -5.950585 6.465496 20.213873 -3.382124 9.995345 -11.208913 47.871128 -6.204524 -19.310387 70.727371 -5.814123 7.703731 4.471251 -0.075382 0.562595 57.240997 -1.052270 -23.782290 71.409737 -4.626930 3.730734 1.088704 -0.029236 0.090556 54.671432 4.191544 -15.433420 55.286713 -9.683537 -2.050103 5.139247 -1.089020 0.070133 66.763969 9.940015 0.748499 79.365524 -11.426594 -18.069847 -16.422390 3.896210 -0.622229 0.052405 13.742726 -5.177951 0.049904 0.357293 15.900086 -9.633382 -6.701604 -14.010376 -0.133291 -0.818188 -4.377944 0.592561 -5.729288 -6.492524 -0.067823 -0.415122 18.560274 7.536430 1.434323 -17.487885 0.052560 0.249724 -1.744917
-0.003404 8.272867 -0.472338 180.000000 -0.000011 180.000000 3.796760 -3.807391 -1.345016 -0.026680 0.590314 -3.464228 3.276549 -9.000181 3.245485 0.840511 -15.903889 8.256858 -12.438021 -7.355991 0.104408 -55.538254 -3.872390 20.410492 0.369914 -50.053169 -0.799675 35.545490 -6.397220 -40.419762 0.000004 -0.000007 0.000002 -9.716489 5.353501 -19.229038 8.282812 -8.015107 -0.658655 -49.375813 5.932336 -17.888050 -75.384949 -2.026539 2.544182 -7.755679 -0.393498 0.253989 -57.531380 0.791671 -21.633650 -75.203247 -0.234888 4.662004 -4.711806 -0.192499 0.243527 -55.310802 -4.299046 -14.579144 -56.957756 -2.037767 1.462918 -8.573769 -0.625582 0.329190 -66.895119 -9.566979 0.935837 -79.255798 -9.470336 14.162778 11.735352 2.123624 0.543774 11.616402 4.509806 -0.137238 49.986233 -8.001273 21.388103 -0.988270 66.261101 -1.521496 -43.568417 -0.688969 -37.298298 -0.000012 0.000005 -0.000016 -6.104862 5.493493 19.893641 -2.637486 7.218737 -8.742500 49.382156 -5.974348 -17.872677 74.389030 -6.327158 7.849564 7.705905 -0.157156 0.965140 57.540096 -0.836529 -21.631401 74.938431 -4.940034 3.738456 4.702477 -0.126647 0.400310 55.314907 4.259883 -14.591882 56.346653 -9.832193 -2.177122 8.413013 -1.784175 0.063813 66.894241 9.555048 0.904551 79.010010 -11.439422 -17.968063 -11.604645 2.776197 -0.324278 0.081279 13.927284 -5.163269 0.049707 0.356599 15.868415 -12.440835 -5.681624 -13.197032 -0.181313 -1.231364 -5.253891 0.561031 -6.328849 -6.496856 -0.067742 -0.414882 18.549101 6.283429 1.412085 -17.501286 0.045219 0.215540 -1.781848
-0.003404 8.272867 -0.472338 180.000000 -0.000011 180.000000 3.045537 -3.139600 -1.187537 -0.024613 0.486262 -3.922823 5.308079 -9.236506 2.130208 0.875878 -16.537233 6.200784 -10.697556 -8.163095 0.064224 -46.049828 -6.237349 27.388645 0.821389 -63.409763 -1.336986 34.670937 -7.260104 -35.544754 -0.000017 -0.000013 0.000012 -10.882429 5.222559 -17.652208 3.669741 -4.622617 0.003304 -51.577267 5.463949 -15.749454 -78.783638 -2.024183 2.701900 -12.635945 -0.622078 0.440124 -58.032169 0.543620 -18.668123 -77.757858 -0.134617 4.800067 -10.139651 -0.385758 0.539048 -56.196335 -4.459613 -12.834674 -58.541592 -2.068511 1.528760 -13.575023 -0.965338 0.563071 -66.992699 -9.037528 1.587253 -78.725159 -9.482273 14.040692 4.451341 0.818782 0.154997 10.668649 4.882646 -0.109275 47.474667 -9.053327 23.705379 -2.312725 77.062317 -2.911358 -35.129787 1.656443 -19.276384 -0.000002 0.000002 -0.000011 -6.455142 3.522583 19.424280 -1.763681 3.256413 -4.648345 51.582150 -5.500689 -15.734994 77.738777 -6.803414 7.953889 12.552086 -0.321897 1.558155 58.038639 -0.582334 -18.666401 77.488853 -5.166219 3.731950 10.116819 -0.308715 0.851389 56.199379 4.424421 -12.847943 57.936546 -10.050518 -2.372731 13.322115 -2.822419 -0.020027 66.992058 9.027142 1.557205 78.477180 -11.457482 -17.815390 -4.401693 1.060986 -0.056708 0.036351 12.716953 -5.134031 0.049509 0.355905 15.836726 -13.712765 -4.028650 -13.183180 -0.200795 -1.431211 -5.643770 0.547632 -6.584444 -6.495136 -0.067659 -0.414635 18.537689 5.651202 1.176752 -17.489876 0.042339 0.203239 -1.862943
